<svg width="320" height="90" viewBox="0 0 320 90" fill="none" xmlns="http://www.w3.org/2000/svg">
<g transform="translate(10, 10)">
<path d="M 85 35 C 85 35, 65 60, 45 60 C 25 60, 5 35, 5 35 C 5 35, 25 10, 45 10 C 65 10, 85 35, 85 35 Z" fill="white"/>
<path d="M 85 35 C 85 35, 65 60, 45 60 C 25 60, 5 35, 5 35 C 5 35, 25 10, 45 10 C 65 10, 85 35, 85 35 Z" stroke="black" stroke-width="4" stroke-linecap="round" stroke-linejoin="round" fill="none"/>

<path d="M 15 17 C 10 5, 0 -5, 0 -5" stroke="black" stroke-width="4" stroke-linecap="round"/> <path d="M 28 12 C 25 0, 15 -10, 15 -10" stroke="black" stroke-width="4" stroke-linecap="round"/>
<path d="M 45 10 C 45 -5, 40 -15, 40 -15" stroke="black" stroke-width="4" stroke-linecap="round"/>
<path d="M 62 12 C 65 0, 75 -10, 75 -10" stroke="black" stroke-width="4" stroke-linecap="round"/>
<path d="M 75 17 C 80 5, 90 -5, 90 -5" stroke="black" stroke-width="4" stroke-linecap="round"/>
<path d="M 20 53 C 15 65, 5 75, 5 75" stroke="black" stroke-width="3" stroke-linecap="round"/>
<path d="M 35 58 C 35 70, 25 80, 25 80" stroke="black" stroke-width="3" stroke-linecap="round"/>
<path d="M 55 58 C 55 70, 65 80, 65 80" stroke="black" stroke-width="3" stroke-linecap="round"/>
<path d="M 70 53 C 75 65, 85 75, 85 75" stroke="black" stroke-width="3" stroke-linecap="round"/>

<g transform="translate(45, 35)">
<circle cx="0" cy="0" r="20" fill="#00BFFF"/>
<mask id="v-mask">
<rect x="-20" y="-20" width="40" height="40" fill="white"/>
<path d="M -8 -5 L 0 8 L 12 -12" stroke="black" stroke-width="6" stroke-linecap="round" stroke-linejoin="round" fill="none"/>
</mask>
<circle cx="0" cy="0" r="20" fill="#00BFFF" mask="url(#v-mask)"/>
<circle cx="5" cy="-5" r="3" fill="white"/>
</g>

<path d="M 0 -5 C -15 -15, -25 10, -20 35 C -15 60, 5 70, 25 70" stroke="black" stroke-width="4" stroke-linecap="round" stroke-linejoin="round" fill="none" transform="translate(15, 17)"/>
</g>

<g transform="translate(125, 58)" font-family="Arial, Helvetica, sans-serif" font-size="48" font-weight="bold">
<text x="0" y="0" fill="black">doc</text>
<text x="85" y="0" fill="#00BFFF">vue</text>
</g>
</svg>