<svg xmlns="http://www.w3.org/2000/svg" viewBox="0 0 320 85" fill="none">
  <defs>
    <linearGradient id="oceanGradient" x1="0%" y1="100%" x2="100%" y2="0%">
      <stop offset="0%" style="stop-color:#009688;stop-opacity:1" /> <stop offset="100%" style="stop-color:#4DB6AC;stop-opacity:1" /> </linearGradient>
  </defs>

  <g transform="translate(10, 10)">
    
    <path d="M 85 30 C 85 30, 75 5, 45 5 C 15 5, 5 30, 5 30 C 5 30, 15 60, 45 60 C 75 60, 85 30, 85 30 Z" fill="url(#oceanGradient)" opacity="0.15"/>
    <path d="M 5 30 C 5 30, 15 60, 45 60 C 65 60, 80 45, 85 30" stroke="url(#oceanGradient)" stroke-width="5" stroke-linecap="round" fill="none"/> <path d="M 5 30 C 5 30, 15 5, 45 5 C 75 5, 85 30, 85 30" stroke="url(#oceanGradient)" stroke-width="5" stroke-linecap="round" fill="none"/>  <g transform="translate(32, 22)">
        <path d="M 0 12 L 10 22 L 30 0" stroke="url(#oceanGradient)" stroke-width="6" stroke-linecap="round" stroke-linejoin="round" fill="none"/>
    </g>
  </g>

  <g transform="translate(115, 58)" font-family="'Poppins', 'Helvetica Neue', sans-serif" font-size="48" font-weight="700" letter-spacing="-1">
    <text x="0" y="0" fill="#0A2342">doc</text>
    <text x="85" y="0" fill="url(#oceanGradient)">vue</text>
  </g>
</svg>